<svg width="20" height="20" viewBox="0 0 20 20" fill="none" xmlns="http://www.w3.org/2000/svg">
<path d="M7.77983 4.77985C7.91231 4.63767 7.98443 4.44963 7.981 4.25532C7.97758 4.06102 7.89886 3.87564 7.76145 3.73822C7.62404 3.60081 7.43865 3.5221 7.24435 3.51867C7.05005 3.51524 6.862 3.58737 6.71983 3.71985L2.21983 8.21985C2.07938 8.36047 2.00049 8.5511 2.00049 8.74985C2.00049 8.9486 2.07938 9.13922 2.21983 9.27985L6.71983 13.7798C6.862 13.9123 7.05005 13.9845 7.24435 13.981C7.43865 13.9776 7.62404 13.8989 7.76145 13.7615C7.89886 13.6241 7.97758 13.4387 7.981 13.2444C7.98443 13.0501 7.91231 12.862 7.77983 12.7198L4.55983 9.49985H10.7498C12.2748 9.49985 13.7374 10.1056 14.8157 11.184C15.894 12.2623 16.4998 13.7249 16.4998 15.2498C16.4998 15.4488 16.5788 15.6395 16.7195 15.7802C16.8602 15.9208 17.0509 15.9998 17.2498 15.9998C17.4487 15.9998 17.6395 15.9208 17.7802 15.7802C17.9208 15.6395 17.9998 15.4488 17.9998 15.2498C17.9998 13.327 17.236 11.483 15.8764 10.1233C14.5167 8.76368 12.6726 7.99985 10.7498 7.99985H4.55983L7.77983 4.77985Z" fill="white"/>
</svg>
