<svg width="234" height="49" viewBox="0 0 234 49" fill="none" xmlns="http://www.w3.org/2000/svg">
<path d="M7.00199 41.21C6.44199 41.21 5.87199 41.1 5.29199 40.88C4.72199 40.66 4.22699 40.38 3.80699 40.04L4.81199 38.645C5.18199 38.925 5.54699 39.15 5.90699 39.32C6.27699 39.48 6.66199 39.56 7.06199 39.56C7.48199 39.56 7.78699 39.48 7.97699 39.32C8.17699 39.15 8.27699 38.935 8.27699 38.675C8.27699 38.465 8.19199 38.29 8.02199 38.15C7.85199 38 7.63199 37.87 7.36199 37.76C7.09199 37.64 6.81199 37.525 6.52199 37.415C6.17199 37.275 5.82199 37.105 5.47199 36.905C5.13199 36.705 4.84699 36.45 4.61699 36.14C4.38699 35.82 4.27199 35.425 4.27199 34.955C4.27199 34.455 4.40199 34.015 4.66199 33.635C4.92199 33.245 5.28199 32.94 5.74199 32.72C6.21199 32.5 6.76699 32.39 7.40699 32.39C8.01699 32.39 8.55699 32.495 9.02699 32.705C9.50699 32.915 9.91699 33.155 10.257 33.425L9.26699 34.76C8.96699 34.54 8.66699 34.365 8.36699 34.235C8.07699 34.105 7.77699 34.04 7.46699 34.04C7.07699 34.04 6.79199 34.115 6.61199 34.265C6.43199 34.415 6.34199 34.61 6.34199 34.85C6.34199 35.05 6.41699 35.22 6.56699 35.36C6.71699 35.49 6.92199 35.605 7.18199 35.705C7.44199 35.805 7.71699 35.91 8.00699 36.02C8.28699 36.12 8.56199 36.24 8.83199 36.38C9.11199 36.51 9.36699 36.67 9.59699 36.86C9.82699 37.05 10.007 37.285 10.137 37.565C10.277 37.835 10.347 38.165 10.347 38.555C10.347 39.045 10.217 39.495 9.95699 39.905C9.70699 40.305 9.33199 40.625 8.83199 40.865C8.34199 41.095 7.73199 41.21 7.00199 41.21ZM14.6789 41.21C14.0189 41.21 13.4839 41.08 13.0739 40.82C12.6639 40.55 12.3689 40.18 12.1889 39.71C12.0089 39.24 11.9189 38.695 11.9189 38.075V34.34H10.7339V32.705L12.0389 32.6L12.2939 30.335H14.1089V32.6H16.1939V34.34H14.1089V38.06C14.1089 38.54 14.2089 38.895 14.4089 39.125C14.6089 39.355 14.8939 39.47 15.2639 39.47C15.4039 39.47 15.5489 39.45 15.6989 39.41C15.8489 39.37 15.9789 39.33 16.0889 39.29L16.4639 40.895C16.2339 40.965 15.9689 41.035 15.6689 41.105C15.3789 41.175 15.0489 41.21 14.6789 41.21ZM21.2112 41.21C20.4312 41.21 19.7262 41.035 19.0962 40.685C18.4662 40.335 17.9612 39.83 17.5812 39.17C17.2112 38.51 17.0262 37.72 17.0262 36.8C17.0262 36.12 17.1312 35.51 17.3412 34.97C17.5612 34.43 17.8562 33.97 18.2262 33.59C18.6062 33.2 19.0262 32.905 19.4862 32.705C19.9562 32.495 20.4412 32.39 20.9412 32.39C21.7112 32.39 22.3562 32.565 22.8762 32.915C23.3962 33.255 23.7862 33.73 24.0462 34.34C24.3162 34.94 24.4512 35.63 24.4512 36.41C24.4512 36.61 24.4412 36.805 24.4212 36.995C24.4012 37.175 24.3762 37.32 24.3462 37.43H19.1712C19.2312 37.88 19.3662 38.26 19.5762 38.57C19.7862 38.88 20.0562 39.115 20.3862 39.275C20.7162 39.425 21.0912 39.5 21.5112 39.5C21.8512 39.5 22.1712 39.455 22.4712 39.365C22.7712 39.265 23.0762 39.12 23.3862 38.93L24.1362 40.28C23.7262 40.56 23.2662 40.785 22.7562 40.955C22.2462 41.125 21.7312 41.21 21.2112 41.21ZM19.1262 35.945H22.5612C22.5612 35.385 22.4312 34.94 22.1712 34.61C21.9212 34.27 21.5212 34.1 20.9712 34.1C20.6812 34.1 20.4062 34.17 20.1462 34.31C19.8862 34.44 19.6662 34.645 19.4862 34.925C19.3062 35.195 19.1862 35.535 19.1262 35.945ZM26.267 44.225V32.6H28.067L28.232 33.47H28.277C28.627 33.17 29.012 32.915 29.432 32.705C29.862 32.495 30.302 32.39 30.752 32.39C31.442 32.39 32.032 32.57 32.522 32.93C33.012 33.28 33.387 33.775 33.647 34.415C33.917 35.045 34.052 35.795 34.052 36.665C34.052 37.625 33.882 38.445 33.542 39.125C33.202 39.805 32.757 40.325 32.207 40.685C31.667 41.035 31.092 41.21 30.482 41.21C30.122 41.21 29.762 41.13 29.402 40.97C29.052 40.81 28.717 40.585 28.397 40.295L28.472 41.66V44.225H26.267ZM30.002 39.395C30.332 39.395 30.632 39.3 30.902 39.11C31.172 38.91 31.387 38.61 31.547 38.21C31.707 37.81 31.787 37.305 31.787 36.695C31.787 36.165 31.727 35.715 31.607 35.345C31.487 34.965 31.307 34.68 31.067 34.49C30.827 34.3 30.512 34.205 30.122 34.205C29.842 34.205 29.567 34.275 29.297 34.415C29.037 34.555 28.762 34.77 28.472 35.06V38.765C28.742 39.005 29.007 39.17 29.267 39.26C29.527 39.35 29.772 39.395 30.002 39.395ZM35.9654 41V39.2H38.3654V32.495H36.3404V31.115C36.9004 31.005 37.3804 30.875 37.7804 30.725C38.1904 30.575 38.5704 30.395 38.9204 30.185H40.5554V39.2H42.6404V41H35.9654Z" fill="white"/>
<path opacity="0.8" d="M102.002 41.21C101.442 41.21 100.872 41.1 100.292 40.88C99.722 40.66 99.227 40.38 98.807 40.04L99.812 38.645C100.182 38.925 100.547 39.15 100.907 39.32C101.277 39.48 101.662 39.56 102.062 39.56C102.482 39.56 102.787 39.48 102.977 39.32C103.177 39.15 103.277 38.935 103.277 38.675C103.277 38.465 103.192 38.29 103.022 38.15C102.852 38 102.632 37.87 102.362 37.76C102.092 37.64 101.812 37.525 101.522 37.415C101.172 37.275 100.822 37.105 100.472 36.905C100.132 36.705 99.847 36.45 99.617 36.14C99.387 35.82 99.272 35.425 99.272 34.955C99.272 34.455 99.402 34.015 99.662 33.635C99.922 33.245 100.282 32.94 100.742 32.72C101.212 32.5 101.767 32.39 102.407 32.39C103.017 32.39 103.557 32.495 104.027 32.705C104.507 32.915 104.917 33.155 105.257 33.425L104.267 34.76C103.967 34.54 103.667 34.365 103.367 34.235C103.077 34.105 102.777 34.04 102.467 34.04C102.077 34.04 101.792 34.115 101.612 34.265C101.432 34.415 101.342 34.61 101.342 34.85C101.342 35.05 101.417 35.22 101.567 35.36C101.717 35.49 101.922 35.605 102.182 35.705C102.442 35.805 102.717 35.91 103.007 36.02C103.287 36.12 103.562 36.24 103.832 36.38C104.112 36.51 104.367 36.67 104.597 36.86C104.827 37.05 105.007 37.285 105.137 37.565C105.277 37.835 105.347 38.165 105.347 38.555C105.347 39.045 105.217 39.495 104.957 39.905C104.707 40.305 104.332 40.625 103.832 40.865C103.342 41.095 102.732 41.21 102.002 41.21ZM109.679 41.21C109.019 41.21 108.484 41.08 108.074 40.82C107.664 40.55 107.369 40.18 107.189 39.71C107.009 39.24 106.919 38.695 106.919 38.075V34.34H105.734V32.705L107.039 32.6L107.294 30.335H109.109V32.6H111.194V34.34H109.109V38.06C109.109 38.54 109.209 38.895 109.409 39.125C109.609 39.355 109.894 39.47 110.264 39.47C110.404 39.47 110.549 39.45 110.699 39.41C110.849 39.37 110.979 39.33 111.089 39.29L111.464 40.895C111.234 40.965 110.969 41.035 110.669 41.105C110.379 41.175 110.049 41.21 109.679 41.21ZM116.211 41.21C115.431 41.21 114.726 41.035 114.096 40.685C113.466 40.335 112.961 39.83 112.581 39.17C112.211 38.51 112.026 37.72 112.026 36.8C112.026 36.12 112.131 35.51 112.341 34.97C112.561 34.43 112.856 33.97 113.226 33.59C113.606 33.2 114.026 32.905 114.486 32.705C114.956 32.495 115.441 32.39 115.941 32.39C116.711 32.39 117.356 32.565 117.876 32.915C118.396 33.255 118.786 33.73 119.046 34.34C119.316 34.94 119.451 35.63 119.451 36.41C119.451 36.61 119.441 36.805 119.421 36.995C119.401 37.175 119.376 37.32 119.346 37.43H114.171C114.231 37.88 114.366 38.26 114.576 38.57C114.786 38.88 115.056 39.115 115.386 39.275C115.716 39.425 116.091 39.5 116.511 39.5C116.851 39.5 117.171 39.455 117.471 39.365C117.771 39.265 118.076 39.12 118.386 38.93L119.136 40.28C118.726 40.56 118.266 40.785 117.756 40.955C117.246 41.125 116.731 41.21 116.211 41.21ZM114.126 35.945H117.561C117.561 35.385 117.431 34.94 117.171 34.61C116.921 34.27 116.521 34.1 115.971 34.1C115.681 34.1 115.406 34.17 115.146 34.31C114.886 34.44 114.666 34.645 114.486 34.925C114.306 35.195 114.186 35.535 114.126 35.945ZM121.267 44.225V32.6H123.067L123.232 33.47H123.277C123.627 33.17 124.012 32.915 124.432 32.705C124.862 32.495 125.302 32.39 125.752 32.39C126.442 32.39 127.032 32.57 127.522 32.93C128.012 33.28 128.387 33.775 128.647 34.415C128.917 35.045 129.052 35.795 129.052 36.665C129.052 37.625 128.882 38.445 128.542 39.125C128.202 39.805 127.757 40.325 127.207 40.685C126.667 41.035 126.092 41.21 125.482 41.21C125.122 41.21 124.762 41.13 124.402 40.97C124.052 40.81 123.717 40.585 123.397 40.295L123.472 41.66V44.225H121.267ZM125.002 39.395C125.332 39.395 125.632 39.3 125.902 39.11C126.172 38.91 126.387 38.61 126.547 38.21C126.707 37.81 126.787 37.305 126.787 36.695C126.787 36.165 126.727 35.715 126.607 35.345C126.487 34.965 126.307 34.68 126.067 34.49C125.827 34.3 125.512 34.205 125.122 34.205C124.842 34.205 124.567 34.275 124.297 34.415C124.037 34.555 123.762 34.77 123.472 35.06V38.765C123.742 39.005 124.007 39.17 124.267 39.26C124.527 39.35 124.772 39.395 125.002 39.395ZM130.38 41V39.725C131.34 38.805 132.18 37.975 132.9 37.235C133.62 36.485 134.18 35.805 134.58 35.195C134.98 34.575 135.18 34 135.18 33.47C135.18 33.1 135.115 32.785 134.985 32.525C134.855 32.265 134.665 32.065 134.415 31.925C134.175 31.785 133.875 31.715 133.515 31.715C133.115 31.715 132.745 31.83 132.405 32.06C132.075 32.29 131.77 32.555 131.49 32.855L130.26 31.655C130.78 31.105 131.31 30.69 131.85 30.41C132.4 30.12 133.05 29.975 133.8 29.975C134.5 29.975 135.11 30.115 135.63 30.395C136.16 30.675 136.57 31.07 136.86 31.58C137.15 32.08 137.295 32.67 137.295 33.35C137.295 33.97 137.12 34.605 136.77 35.255C136.43 35.905 135.975 36.565 135.405 37.235C134.845 37.895 134.23 38.575 133.56 39.275C133.84 39.235 134.15 39.205 134.49 39.185C134.83 39.155 135.13 39.14 135.39 39.14H137.82V41H130.38Z" fill="#8A8A8A"/>
<path d="M197.002 41.21C196.442 41.21 195.872 41.1 195.292 40.88C194.722 40.66 194.227 40.38 193.807 40.04L194.812 38.645C195.182 38.925 195.547 39.15 195.907 39.32C196.277 39.48 196.662 39.56 197.062 39.56C197.482 39.56 197.787 39.48 197.977 39.32C198.177 39.15 198.277 38.935 198.277 38.675C198.277 38.465 198.192 38.29 198.022 38.15C197.852 38 197.632 37.87 197.362 37.76C197.092 37.64 196.812 37.525 196.522 37.415C196.172 37.275 195.822 37.105 195.472 36.905C195.132 36.705 194.847 36.45 194.617 36.14C194.387 35.82 194.272 35.425 194.272 34.955C194.272 34.455 194.402 34.015 194.662 33.635C194.922 33.245 195.282 32.94 195.742 32.72C196.212 32.5 196.767 32.39 197.407 32.39C198.017 32.39 198.557 32.495 199.027 32.705C199.507 32.915 199.917 33.155 200.257 33.425L199.267 34.76C198.967 34.54 198.667 34.365 198.367 34.235C198.077 34.105 197.777 34.04 197.467 34.04C197.077 34.04 196.792 34.115 196.612 34.265C196.432 34.415 196.342 34.61 196.342 34.85C196.342 35.05 196.417 35.22 196.567 35.36C196.717 35.49 196.922 35.605 197.182 35.705C197.442 35.805 197.717 35.91 198.007 36.02C198.287 36.12 198.562 36.24 198.832 36.38C199.112 36.51 199.367 36.67 199.597 36.86C199.827 37.05 200.007 37.285 200.137 37.565C200.277 37.835 200.347 38.165 200.347 38.555C200.347 39.045 200.217 39.495 199.957 39.905C199.707 40.305 199.332 40.625 198.832 40.865C198.342 41.095 197.732 41.21 197.002 41.21ZM204.679 41.21C204.019 41.21 203.484 41.08 203.074 40.82C202.664 40.55 202.369 40.18 202.189 39.71C202.009 39.24 201.919 38.695 201.919 38.075V34.34H200.734V32.705L202.039 32.6L202.294 30.335H204.109V32.6H206.194V34.34H204.109V38.06C204.109 38.54 204.209 38.895 204.409 39.125C204.609 39.355 204.894 39.47 205.264 39.47C205.404 39.47 205.549 39.45 205.699 39.41C205.849 39.37 205.979 39.33 206.089 39.29L206.464 40.895C206.234 40.965 205.969 41.035 205.669 41.105C205.379 41.175 205.049 41.21 204.679 41.21ZM211.211 41.21C210.431 41.21 209.726 41.035 209.096 40.685C208.466 40.335 207.961 39.83 207.581 39.17C207.211 38.51 207.026 37.72 207.026 36.8C207.026 36.12 207.131 35.51 207.341 34.97C207.561 34.43 207.856 33.97 208.226 33.59C208.606 33.2 209.026 32.905 209.486 32.705C209.956 32.495 210.441 32.39 210.941 32.39C211.711 32.39 212.356 32.565 212.876 32.915C213.396 33.255 213.786 33.73 214.046 34.34C214.316 34.94 214.451 35.63 214.451 36.41C214.451 36.61 214.441 36.805 214.421 36.995C214.401 37.175 214.376 37.32 214.346 37.43H209.171C209.231 37.88 209.366 38.26 209.576 38.57C209.786 38.88 210.056 39.115 210.386 39.275C210.716 39.425 211.091 39.5 211.511 39.5C211.851 39.5 212.171 39.455 212.471 39.365C212.771 39.265 213.076 39.12 213.386 38.93L214.136 40.28C213.726 40.56 213.266 40.785 212.756 40.955C212.246 41.125 211.731 41.21 211.211 41.21ZM209.126 35.945H212.561C212.561 35.385 212.431 34.94 212.171 34.61C211.921 34.27 211.521 34.1 210.971 34.1C210.681 34.1 210.406 34.17 210.146 34.31C209.886 34.44 209.666 34.645 209.486 34.925C209.306 35.195 209.186 35.535 209.126 35.945ZM216.267 44.225V32.6H218.067L218.232 33.47H218.277C218.627 33.17 219.012 32.915 219.432 32.705C219.862 32.495 220.302 32.39 220.752 32.39C221.442 32.39 222.032 32.57 222.522 32.93C223.012 33.28 223.387 33.775 223.647 34.415C223.917 35.045 224.052 35.795 224.052 36.665C224.052 37.625 223.882 38.445 223.542 39.125C223.202 39.805 222.757 40.325 222.207 40.685C221.667 41.035 221.092 41.21 220.482 41.21C220.122 41.21 219.762 41.13 219.402 40.97C219.052 40.81 218.717 40.585 218.397 40.295L218.472 41.66V44.225H216.267ZM220.002 39.395C220.332 39.395 220.632 39.3 220.902 39.11C221.172 38.91 221.387 38.61 221.547 38.21C221.707 37.81 221.787 37.305 221.787 36.695C221.787 36.165 221.727 35.715 221.607 35.345C221.487 34.965 221.307 34.68 221.067 34.49C220.827 34.3 220.512 34.205 220.122 34.205C219.842 34.205 219.567 34.275 219.297 34.415C219.037 34.555 218.762 34.77 218.472 35.06V38.765C218.742 39.005 219.007 39.17 219.267 39.26C219.527 39.35 219.772 39.395 220.002 39.395ZM228.83 41.21C228.25 41.21 227.73 41.14 227.27 41C226.81 40.87 226.4 40.69 226.04 40.46C225.69 40.22 225.385 39.955 225.125 39.665L226.16 38.27C226.5 38.58 226.87 38.85 227.27 39.08C227.68 39.3 228.135 39.41 228.635 39.41C229.015 39.41 229.345 39.355 229.625 39.245C229.915 39.125 230.135 38.955 230.285 38.735C230.445 38.515 230.525 38.25 230.525 37.94C230.525 37.59 230.435 37.29 230.255 37.04C230.085 36.78 229.78 36.585 229.34 36.455C228.9 36.315 228.28 36.245 227.48 36.245V34.655C228.16 34.655 228.695 34.585 229.085 34.445C229.475 34.305 229.75 34.115 229.91 33.875C230.08 33.635 230.165 33.36 230.165 33.05C230.165 32.62 230.035 32.29 229.775 32.06C229.515 31.83 229.15 31.715 228.68 31.715C228.29 31.715 227.925 31.805 227.585 31.985C227.255 32.155 226.925 32.395 226.595 32.705L225.455 31.355C225.945 30.935 226.46 30.6 227 30.35C227.54 30.1 228.135 29.975 228.785 29.975C229.495 29.975 230.12 30.09 230.66 30.32C231.21 30.54 231.635 30.87 231.935 31.31C232.235 31.74 232.385 32.265 232.385 32.885C232.385 33.465 232.225 33.96 231.905 34.37C231.585 34.77 231.13 35.09 230.54 35.33V35.405C230.95 35.515 231.32 35.69 231.65 35.93C231.99 36.17 232.255 36.47 232.445 36.83C232.645 37.18 232.745 37.595 232.745 38.075C232.745 38.735 232.565 39.3 232.205 39.77C231.855 40.24 231.38 40.6 230.78 40.85C230.19 41.09 229.54 41.21 228.83 41.21Z" fill="#8A8A8A"/>
<line x1="24" y1="13.5" x2="217" y2="13.5" stroke="#D9D9D9"/>
<circle cx="23.5" cy="13.5" r="8.5" fill="#696969"/>
<circle cx="118.5" cy="13.5" r="8.5" fill="#D9D9D9"/>
<circle cx="213.5" cy="13.5" r="8.5" fill="#D9D9D9"/>
<g opacity="0.8">
<circle cx="8.5" cy="8.5" r="8.5" transform="matrix(-1 0 0 1 222 5.16992)" fill="url(#paint0_linear_208_764)"/>
<path d="M220.425 18.6C218.884 20.7609 216.356 22.17 213.5 22.17C210.915 22.17 208.599 21.0158 207.04 19.1946C207.267 18.798 207.975 17.92 208.995 17.58C210.27 17.155 210.865 19.025 212.395 19.025C213.925 19.025 214.86 16.22 216.305 18.175C217.461 19.739 219.533 19.11 220.425 18.6Z" fill="url(#paint1_linear_208_764)"/>
<path d="M213.5 5C218.194 5 222 8.80558 222 13.5C221.263 12.5083 219.161 10.95 216.645 12.65C213.5 14.775 212.905 11.63 211.545 12.14C210.185 12.65 209.505 14.095 208.145 13.67C207.057 13.33 205.931 11.4883 205.504 10.61C206.687 7.33826 209.82 5 213.5 5Z" fill="url(#paint2_linear_208_764)"/>
<ellipse cx="1.53" cy="0.935" rx="1.53" ry="0.935" transform="matrix(-1 0 0 1 210.27 15.54)" fill="#DC493A"/>
<ellipse cx="1.275" cy="0.595" rx="1.275" ry="0.595" transform="matrix(-1 0 0 1 219.28 8.57007)" fill="#BA5E58"/>
</g>
<g opacity="0.8">
<circle cx="8.5" cy="8.5" r="8.5" transform="matrix(-1 0 0 1 127 5.16992)" fill="url(#paint3_linear_208_764)"/>
<path d="M125.425 18.6C123.884 20.7609 121.356 22.17 118.5 22.17C115.915 22.17 113.599 21.0158 112.04 19.1946C112.267 18.798 112.975 17.92 113.995 17.58C115.27 17.155 115.865 19.025 117.395 19.025C118.925 19.025 119.86 16.22 121.305 18.175C122.461 19.739 124.533 19.11 125.425 18.6Z" fill="url(#paint4_linear_208_764)"/>
<path d="M118.5 5C123.194 5 127 8.80558 127 13.5C126.263 12.5083 124.161 10.95 121.645 12.65C118.5 14.775 117.905 11.63 116.545 12.14C115.185 12.65 114.505 14.095 113.145 13.67C112.057 13.33 110.931 11.4883 110.504 10.61C111.687 7.33826 114.82 5 118.5 5Z" fill="url(#paint5_linear_208_764)"/>
<ellipse cx="1.53" cy="0.935" rx="1.53" ry="0.935" transform="matrix(-1 0 0 1 115.27 15.54)" fill="#DC493A"/>
<ellipse cx="1.275" cy="0.595" rx="1.275" ry="0.595" transform="matrix(-1 0 0 1 124.28 8.57007)" fill="#BA5E58"/>
</g>
<path d="M26.8526 24.4067L29.3665 19.0489L18.9749 18.8536L14.3883 25.8499L26.8526 24.4067Z" fill="#FB5A21"/>
<path d="M27.2733 2.01878L29.5939 6.94437L19.2023 6.74905L14.869 0.270523L27.2733 2.01878Z" fill="#FB5A21"/>
<path d="M14.6222 12.8316L16.8408 12.8733L19.0594 12.915L42.7246 13.3599C42.7246 13.3599 41.3201 9.88157 34.3845 7.40392C30.3946 5.97856 26.657 5.2957 22.7246 4.87787C20.1975 4.60936 17.5496 4.68266 14.773 4.80882L14.7429 6.41338L13.2638 6.38558L13.2284 8.26633L11.7494 8.23853L11.6641 12.776L13.1432 12.8038L14.6222 12.8316Z" fill="#DCDFD9"/>
<path d="M14.6222 12.8316L16.8408 12.8733L19.0594 12.915L42.7246 13.3599C42.7246 13.3599 41.1885 16.8788 34.1635 19.1592C30.1221 20.4711 26.3613 21.03 22.4157 21.3094C19.8802 21.4888 17.2371 21.3127 14.4672 21.0773L14.4982 19.4282L13.0192 19.4004L13.0555 17.4674L11.5764 17.4396L11.6641 12.776L13.1432 12.8038L14.6222 12.8316Z" fill="#F9F1F9"/>
<path d="M9.41446 10.9118C9.39166 12.1251 9.37587 12.965 9.33728 15.0183C9.2948 17.278 2.81643 15.4559 2.82696 14.8959C2.83748 14.3359 0.24042 12.7933 0.24042 12.7933C0.24042 12.7933 2.88835 11.6294 2.90414 10.7894C2.91993 9.94949 9.45387 8.81545 9.41446 10.9118Z" fill="#E36018"/>
<path d="M9.40747 11.2681C9.38863 12.2704 9.37559 12.9643 9.34371 14.6604C9.30862 16.5271 4.45227 15.0312 4.46097 14.5686C4.46966 14.1061 2.524 12.8355 2.524 12.8355C2.524 12.8355 4.51169 11.8702 4.52473 11.1764C4.53777 10.4825 9.44002 9.53635 9.40747 11.2681Z" fill="#FFAE44"/>
<path d="M9.39748 11.803C9.38458 12.4887 9.37566 12.9635 9.35385 14.124C9.32984 15.4012 6.09274 14.3793 6.09869 14.0628C6.10464 13.7463 4.80794 12.8776 4.80794 12.8776C4.80794 12.8776 6.13339 12.2165 6.14232 11.7418C6.15124 11.267 9.41975 10.6181 9.39748 11.803Z" fill="#FCE25E"/>
<path d="M11.7327 9.12183L11.591 16.6586L8.85895 16.1503L8.97915 9.75547L11.7327 9.12183Z" fill="#5B6575"/>
<circle cx="34.9585" cy="13.2608" r="3.65482" transform="rotate(91.0768 34.9585 13.2608)" fill="#00D5CC"/>
<path d="M26.8341 11.4181L29.2505 13.0628L26.774 14.6155L11.208 12.7237L26.8341 11.4181Z" fill="#FB5A21"/>
<defs>
<linearGradient id="paint0_linear_208_764" x1="17" y1="8.5" x2="0" y2="8.5" gradientUnits="userSpaceOnUse">
<stop stop-color="#FF9797"/>
<stop offset="1" stop-color="#99433A"/>
</linearGradient>
<linearGradient id="paint1_linear_208_764" x1="207.04" y1="19.8262" x2="220.425" y2="19.8262" gradientUnits="userSpaceOnUse">
<stop stop-color="#FE5248"/>
<stop offset="1" stop-color="#552800"/>
</linearGradient>
<linearGradient id="paint2_linear_208_764" x1="205.504" y1="9.3736" x2="222" y2="9.3736" gradientUnits="userSpaceOnUse">
<stop stop-color="#F78675"/>
<stop offset="1" stop-color="#7B1712"/>
</linearGradient>
<linearGradient id="paint3_linear_208_764" x1="17" y1="8.5" x2="0" y2="8.5" gradientUnits="userSpaceOnUse">
<stop stop-color="#FF9797"/>
<stop offset="1" stop-color="#99433A"/>
</linearGradient>
<linearGradient id="paint4_linear_208_764" x1="112.04" y1="19.8262" x2="125.425" y2="19.8262" gradientUnits="userSpaceOnUse">
<stop stop-color="#FE5248"/>
<stop offset="1" stop-color="#552800"/>
</linearGradient>
<linearGradient id="paint5_linear_208_764" x1="110.504" y1="9.3736" x2="127" y2="9.3736" gradientUnits="userSpaceOnUse">
<stop stop-color="#F78675"/>
<stop offset="1" stop-color="#7B1712"/>
</linearGradient>
</defs>
</svg>
